# xmcd
# 
# Track frame offsets:
#     150
#     11590
#     24395
#     38283
#     50095
#     61690
#     75288
#     88453
#     100895
#     112740
#     124510
#     137965
#     150065
#     162100
#     174428
#     187030
#     200475
#     211020
#     223468
#     235030
# 
# Disc length: 3312
# 
# Revision: 1
# Processed by: cddbd v1.5.2PL0 Copyright (c) Steve Scherf et al.
# Submitted via: fre:ac v1.0.31
# 
DISCID=f80cee14
DTITLE=Columbia Blues - Frankie Lee Sims Lucy Mae Blues
DYEAR=0
DGENRE=Blues
TTITLE0=Lucy Mae Blues
TTITLE1=Don't Take It Out On Me
TTITLE2=Married Woman
TTITLE3=Wine and Gin Bounce
TTITLE4=Boogie 'Cross the Country
TTITLE5=Jelly Roll Blues
TTITLE6=I'm So Glad
TTITLE7=Long Gone
TTITLE8=Raggedy And Dirty
TTITLE9=Yeh, Baby
TTITLE10=No Good Woman
TTITLE11=Walking Boogie (Take 4)
TTITLE12=Frankie's Blues
TTITLE13=Crying Won't Help You
TTITLE14=I Done Talked And I Done Talked
TTITLE15=Lucy Mae Blues (Part 2)
TTITLE16=Rhumba My Boogie
TTITLE17=I'll Get Along Somehow
TTITLE18=Hawk Shuffle
TTITLE19=Frankie Lee's 2 O'Clock Jump
EXTD=
EXTT0=
EXTT1=
EXTT2=
EXTT3=
EXTT4=
EXTT5=
EXTT6=
EXTT7=
EXTT8=
EXTT9=
EXTT10=
EXTT11=
EXTT12=
EXTT13=
EXTT14=
EXTT15=
EXTT16=
EXTT17=
EXTT18=
EXTT19=
PLAYORDER=
